<?xml version="1.0" ?><svg id="Outlined" viewBox="0 0 32 32" xmlns="http://www.w3.org/2000/svg"><title/><g id="Fill"><path d="M29.35,6.88,25.11,2.63a3,3,0,0,0-4.23,0L14.64,8.81l1.41,1.42,6.23-6.18a1,1,0,0,1,1.42,0l4.24,4.24a1,1,0,0,1,0,1.42L21.7,15.89l1.41,1.42,6.23-6.18A2.94,2.94,0,0,0,30.23,9,3,3,0,0,0,29.35,6.88Z"/><path d="M9.71,27.89a1,1,0,0,1-1.41,0L4.06,23.64a1,1,0,0,1-.3-.71,1,1,0,0,1,.3-.71L10.29,16,8.88,14.62,2.65,20.8a3,3,0,0,0,0,4.26L6.88,29.3A3,3,0,0,0,9,30.17a3,3,0,0,0,2.11-.86l6.23-6.19L15.94,21.7Z"/><rect height="5" width="2" x="11" y="5"/><rect height="2" width="5" x="5" y="11"/><rect height="5" width="2" x="19" y="22"/><rect height="2" width="5" x="22" y="19"/></g></svg>