<svg width="14" height="14" viewBox="0 0 14 14" fill="none" xmlns="http://www.w3.org/2000/svg">
<g clip-path="url(#clip0_329_12033)">
<path d="M11.2 8.4H9.8V5.6H11.2C12.7463 5.6 14 4.3463 14 2.8C14 1.2537 12.7463 0 11.2 0C9.65352 0 8.4 1.2537 8.4 2.8V4.2H5.6V2.8C5.6 1.2537 4.3463 0 2.8 0C1.2537 0 0 1.2537 0 2.8C0 4.3463 1.2537 5.6 2.8 5.6H4.2V8.4H2.8C1.2537 8.4 0 9.6537 0 11.2C0 12.7463 1.2537 14 2.8 14C4.34648 14 5.6 12.7463 5.6 11.2V9.8H8.4V11.1965C8.4 11.1979 8.39983 11.1989 8.39983 11.2C8.39983 12.7463 9.65352 14 11.1998 14C12.7461 14 13.9998 12.7463 13.9998 11.2C13.9998 9.6537 12.7463 8.40035 11.2 8.4ZM11.2 1.4C11.9732 1.4 12.6 2.02685 12.6 2.8C12.6 3.57315 11.9732 4.2 11.2 4.2H9.8V2.8C9.8 2.02685 10.4268 1.4 11.2 1.4ZM1.4 2.8C1.4 2.02685 2.02685 1.4 2.8 1.4C3.57315 1.4 4.2 2.02685 4.2 2.8V4.2H2.8C2.02685 4.2 1.4 3.57297 1.4 2.8ZM2.8 12.6C2.02685 12.6 1.4 11.9732 1.4 11.2C1.4 10.4268 2.02685 9.8 2.8 9.8H4.2V11.2C4.2 11.9732 3.57315 12.6 2.8 12.6ZM5.6 8.4V5.6H8.4V8.4H5.6ZM11.2 12.6C10.4268 12.6 9.8 11.9732 9.8 11.2V9.8H11.1998C11.973 9.8 12.5998 10.4268 12.5998 11.2C12.5998 11.9732 11.9732 12.6 11.2 12.6Z"/>
</g>
<defs>
<clipPath id="clip0_329_12033">
<rect width="14" height="14" fill="white"/>
</clipPath>
</defs>
</svg>
