<svg width="18" height="16" viewBox="0 0 18 16" fill="none" xmlns="http://www.w3.org/2000/svg">
<path d="M8.99998 15.1667H16.5M1.5 15.1667H2.89545C3.3031 15.1667 3.50693 15.1667 3.69874 15.1206C3.8688 15.0798 4.03138 15.0125 4.1805 14.9211C4.34869 14.818 4.49282 14.6739 4.78107 14.3856L15.25 3.91669C15.9404 3.22634 15.9404 2.10705 15.25 1.41669C14.5597 0.726337 13.4404 0.726337 12.75 1.41669L2.28105 11.8856C1.9928 12.1739 1.84867 12.318 1.7456 12.4862C1.65422 12.6353 1.58688 12.7979 1.54605 12.968C1.5 13.1598 1.5 13.3636 1.5 13.7713V15.1667Z" stroke="current" stroke-width="1.66667" stroke-linecap="round" stroke-linejoin="round"/>
</svg>
