<svg viewBox="0 0 22 22" fill="none" xmlns="http://www.w3.org/2000/svg">
    <path d="M15 7.00001L1 21M17 14H8M5.6 18H12.3373C12.5818 18 12.7041 18 12.8192 17.9724C12.9213 17.9479 13.0188 17.9075 13.1083 17.8526C13.2092 17.7908 13.2957 17.7043 13.4686 17.5314L18.5 12.5C18.739 12.261 18.8584 12.1416 18.9546 12.0358C21.0348 9.74733 21.0348 6.25269 18.9546 3.96424C18.8584 3.85845 18.739 3.73897 18.5 3.50001C18.261 3.26105 18.1416 3.14157 18.0358 3.04541C15.7473 0.965251 12.2527 0.965251 9.96423 3.04541C9.85844 3.14157 9.73896 3.26105 9.5 3.50001L4.46863 8.53138C4.29568 8.70433 4.2092 8.79081 4.14736 8.89172C4.09253 8.9812 4.05213 9.07874 4.02763 9.18078C4 9.29586 4 9.41816 4 9.66275V16.4C4 16.9601 4 17.2401 4.10899 17.454C4.20487 17.6422 4.35785 17.7951 4.54601 17.891C4.75992 18 5.03995 18 5.6 18Z"
          stroke="currentColor" stroke-width="1.67" stroke-linecap="round"
          stroke-linejoin="round"/>
</svg>
