<svg width="31" height="31" viewBox="0 0 31 31" fill="none" xmlns="http://www.w3.org/2000/svg">
<rect x="2.67578" y="2.375" width="26.25" height="26.25" rx="13.125" fill="#1275B1"/>
<path d="M12.6307 9.58639C12.6307 10.4625 11.8713 11.1728 10.9345 11.1728C9.9977 11.1728 9.23828 10.4625 9.23828 9.58639C9.23828 8.71025 9.9977 8 10.9345 8C11.8713 8 12.6307 8.71025 12.6307 9.58639Z" fill="white"/>
<path d="M9.47024 12.3388H12.3697V21.125H9.47024V12.3388Z" fill="white"/>
<path d="M17.0379 12.3388H14.1384V21.125H17.0379C17.0379 21.125 17.0379 18.359 17.0379 16.6296C17.0379 15.5915 17.3923 14.5489 18.8066 14.5489C20.4049 14.5489 20.3952 15.9074 20.3878 16.9598C20.378 18.3354 20.4013 19.7392 20.4013 21.125H23.3008V16.4879C23.2762 13.5269 22.5047 12.1626 19.9664 12.1626C18.459 12.1626 17.5246 12.8469 17.0379 13.4661V12.3388Z" fill="white"/>
</svg>
