<svg width="31" height="31" viewBox="0 0 31 31" fill="none" xmlns="http://www.w3.org/2000/svg">
<path d="M15.6016 2.375C8.3623 2.375 2.47656 8.26074 2.47656 15.5C2.47656 22.7393 8.3623 28.625 15.6016 28.625C22.8408 28.625 28.7266 22.7393 28.7266 15.5C28.7266 8.26074 22.8408 2.375 15.6016 2.375Z" fill="#FC471E"/>
<path fill-rule="evenodd" clip-rule="evenodd" d="M19.3696 8.85267C19.3577 8.92798 19.3516 9.00525 19.3516 9.08399C19.3516 9.87905 19.9812 10.5236 20.7578 10.5236C21.5345 10.5236 22.1641 9.87905 22.1641 9.08399C22.1641 8.28893 21.5345 7.6444 20.7578 7.6444C20.4117 7.6444 20.0949 7.77238 19.8499 7.98461L16.198 7.0625L14.8781 12.4673C13.1222 12.5855 11.5431 13.1299 10.3518 13.9517C10.0136 13.6122 9.55023 13.4028 9.03906 13.4028C8.00353 13.4028 7.16406 14.2621 7.16406 15.3222C7.16406 16.0599 7.57062 16.7005 8.16688 17.0218C8.1238 17.2507 8.10156 17.4843 8.10156 17.7215C8.10156 20.6367 11.4594 23 15.6016 23C19.7437 23 23.1016 20.6367 23.1016 17.7215C23.1016 17.4843 23.0793 17.2507 23.0362 17.0218C23.6325 16.7005 24.0391 16.0599 24.0391 15.3222C24.0391 14.2621 23.1996 13.4028 22.1641 13.4028C21.6529 13.4028 21.1895 13.6122 20.8513 13.9517C19.5534 13.0564 17.7952 12.4904 15.8497 12.4459L16.8801 8.22634L19.3696 8.85267ZM12.3203 18.2014C13.097 18.2014 13.7266 17.5569 13.7266 16.7618C13.7266 15.9667 13.097 15.3222 12.3203 15.3222C11.5437 15.3222 10.9141 15.9667 10.9141 16.7618C10.9141 17.5569 11.5437 18.2014 12.3203 18.2014ZM18.8828 18.2014C19.6595 18.2014 20.2891 17.5569 20.2891 16.7618C20.2891 15.9667 19.6595 15.3222 18.8828 15.3222C18.1062 15.3222 17.4766 15.9667 17.4766 16.7618C17.4766 17.5569 18.1062 18.2014 18.8828 18.2014ZM12.5803 19.7215C12.3649 19.5745 12.0739 19.6341 11.9303 19.8546C11.7867 20.0751 11.8449 20.3731 12.0603 20.5201C13.0804 21.2163 14.341 21.5644 15.6016 21.5643C16.8622 21.5643 18.1227 21.2163 19.1428 20.5201C19.3582 20.3731 19.4164 20.0751 19.2728 19.8546C19.1292 19.6341 18.8382 19.5745 18.6228 19.7215C17.7602 20.3103 16.6809 20.6046 15.6016 20.6046C14.9615 20.6046 14.3214 20.5011 13.7266 20.2941C13.3183 20.152 12.9314 19.9611 12.5803 19.7215Z" fill="white"/>
</svg>
