<svg width="30" height="31" viewBox="0 0 30 31" fill="none" xmlns="http://www.w3.org/2000/svg">
<path d="M24.844 14.5623C26.1383 14.5623 27.1875 13.5131 27.1875 12.2188C27.1875 10.9245 26.1382 9.87525 24.8439 9.87525C23.5494 9.87525 22.5 10.9246 22.5 12.219V14.5623H24.844ZM18.2813 14.5623C19.5757 14.5623 20.625 13.513 20.625 12.2186V5.65649C20.625 4.36208 19.5757 3.31274 18.2813 3.31274C16.9868 3.31274 15.9375 4.36208 15.9375 5.65649V12.2186C15.9375 13.513 16.9868 14.5623 18.2813 14.5623Z" fill="#2EB67D"/>
<path d="M5.15605 16.4377C3.86174 16.4377 2.8125 17.4869 2.8125 18.7812C2.8125 20.0755 3.86184 21.1248 5.15615 21.1248C6.45057 21.1248 7.5 20.0754 7.5 18.781V16.4377H5.15605ZM11.7188 16.4377C10.4243 16.4377 9.375 17.487 9.375 18.7814V25.3435C9.375 26.6379 10.4243 27.6873 11.7188 27.6873C13.0132 27.6873 14.0625 26.6379 14.0625 25.3435V18.7814C14.0625 17.487 13.0132 16.4377 11.7188 16.4377Z" fill="#E01E5A"/>
<path d="M15.9379 25.3439C15.9379 26.6383 16.9871 27.6875 18.2814 27.6875C19.5758 27.6875 20.625 26.6382 20.625 25.3438C20.625 24.0494 19.5757 23 18.2812 23L15.9379 23L15.9379 25.3439ZM15.9379 18.7812C15.9379 20.0757 16.9872 21.125 18.2817 21.125L24.8438 21.125C26.1382 21.125 27.1875 20.0757 27.1875 18.7812C27.1875 17.4868 26.1382 16.4375 24.8438 16.4375L18.2817 16.4375C16.9872 16.4375 15.9379 17.4868 15.9379 18.7812Z" fill="#ECB22E"/>
<path d="M14.0621 5.65605C14.0621 4.36174 13.0129 3.3125 11.7186 3.3125C10.4242 3.3125 9.375 4.36184 9.375 5.65615C9.375 6.95057 10.4243 8 11.7188 8L14.0621 8L14.0621 5.65605ZM14.0621 12.2188C14.0621 10.9243 13.0128 9.875 11.7183 9.875L5.15625 9.875C3.86183 9.875 2.8125 10.9243 2.8125 12.2188C2.8125 13.5132 3.86183 14.5625 5.15625 14.5625L11.7183 14.5625C13.0128 14.5625 14.0621 13.5132 14.0621 12.2188Z" fill="#36C5F0"/>
</svg>
