<svg width="30" height="30" viewBox="0 0 30 30" fill="none" xmlns="http://www.w3.org/2000/svg">
<path d="M3.75 23.7499C5.46022 22.7625 7.40021 22.2427 9.375 22.2427C11.3498 22.2427 13.2898 22.7625 15 23.7499C16.7102 22.7625 18.6502 22.2427 20.625 22.2427C22.5998 22.2427 24.5398 22.7625 26.25 23.7499" stroke-width="2" stroke-linecap="round" stroke-linejoin="round"/>
<path d="M3.75 7.49989C5.46022 6.5125 7.40021 5.99268 9.375 5.99268C11.3498 5.99268 13.2898 6.5125 15 7.49989C16.7102 6.5125 18.6502 5.99268 20.625 5.99268C22.5998 5.99268 24.5398 6.5125 26.25 7.49989" stroke-width="2" stroke-linecap="round" stroke-linejoin="round"/>
<path d="M3.75 7.5V23.75" stroke-width="2" stroke-linecap="round" stroke-linejoin="round"/>
<path d="M15 7.5V23.75" stroke-width="2" stroke-linecap="round" stroke-linejoin="round"/>
<path d="M26.25 7.5V23.75" stroke-width="2" stroke-linecap="round" stroke-linejoin="round"/>
</svg>
