<svg width="31" height="31" viewBox="0 0 31 31" fill="none" xmlns="http://www.w3.org/2000/svg">
<path d="M11.2512 26.75C8.21835 26.75 5.39126 25.8679 3.01172 24.3459C5.03202 24.4766 8.59741 24.1635 10.8151 22.0482C7.47898 21.8952 5.97446 19.3365 5.77822 18.2431C6.06168 18.3524 7.41356 18.4836 8.17672 18.1775C4.33912 17.2153 3.7504 13.8475 3.88123 12.8197C4.60078 13.3226 5.82183 13.4976 6.30153 13.4539C2.72559 10.8952 4.01206 7.04634 4.64439 6.21533C7.21062 9.77062 11.0566 11.7674 15.8146 11.8785C15.7249 11.485 15.6775 11.0754 15.6775 10.6547C15.6775 7.63523 18.118 5.1875 21.1286 5.1875C22.7016 5.1875 24.119 5.85571 25.1139 6.92454C26.1651 6.67822 27.747 6.10163 28.5204 5.603C28.1306 7.0026 26.917 8.17015 26.1829 8.60288C26.1769 8.5881 26.189 8.61761 26.1829 8.60288C26.8277 8.50535 28.5725 8.17003 29.2617 7.7024C28.9209 8.48867 27.6342 9.796 26.5783 10.5279C26.7748 19.1919 20.1459 26.75 11.2512 26.75Z" fill="#47ACDF"/>
</svg>
