<svg width="24" height="24" viewBox="0 0 24 24" fill="none" xmlns="http://www.w3.org/2000/svg">
<mask id="mask0_712_13372" style="mask-type:alpha" maskUnits="userSpaceOnUse" x="0" y="0" width="24" height="24">
<rect width="24" height="24" fill="#D9D9D9"/>
</mask>
<g mask="url(#mask0_712_13372)">
<path d="M16 11V9H22V11H16ZM9 12C7.9 12 6.95833 11.6083 6.175 10.825C5.39167 10.0417 5 9.1 5 8C5 6.9 5.39167 5.95833 6.175 5.175C6.95833 4.39167 7.9 4 9 4C10.1 4 11.0417 4.39167 11.825 5.175C12.6083 5.95833 13 6.9 13 8C13 9.1 12.6083 10.0417 11.825 10.825C11.0417 11.6083 10.1 12 9 12ZM1 20V17.2C1 16.6333 1.14583 16.1125 1.4375 15.6375C1.72917 15.1625 2.11667 14.8 2.6 14.55C3.63333 14.0333 4.68333 13.6458 5.75 13.3875C6.81667 13.1292 7.9 13 9 13C10.1 13 11.1833 13.1292 12.25 13.3875C13.3167 13.6458 14.3667 14.0333 15.4 14.55C15.8833 14.8 16.2708 15.1625 16.5625 15.6375C16.8542 16.1125 17 16.6333 17 17.2V20H1ZM3 18H15V17.2C15 17.0167 14.9542 16.85 14.8625 16.7C14.7708 16.55 14.65 16.4333 14.5 16.35C13.6 15.9 12.6917 15.5625 11.775 15.3375C10.8583 15.1125 9.93333 15 9 15C8.06667 15 7.14167 15.1125 6.225 15.3375C5.30833 15.5625 4.4 15.9 3.5 16.35C3.35 16.4333 3.22917 16.55 3.1375 16.7C3.04583 16.85 3 17.0167 3 17.2V18ZM9 10C9.55 10 10.0208 9.80417 10.4125 9.4125C10.8042 9.02083 11 8.55 11 8C11 7.45 10.8042 6.97917 10.4125 6.5875C10.0208 6.19583 9.55 6 9 6C8.45 6 7.97917 6.19583 7.5875 6.5875C7.19583 6.97917 7 7.45 7 8C7 8.55 7.19583 9.02083 7.5875 9.4125C7.97917 9.80417 8.45 10 9 10Z" fill="currentColor"/>
</g>
</svg>
