<svg xmlns="http://www.w3.org/2000/svg" fill="none" viewBox="0 0 24 24">
  <path fill="#9798ab" fill-rule="evenodd" d="M7 6a1 1 0 011-1h13a1 1 0 110 2H8a1 1 0 01-1-1z" clip-rule="evenodd"/>
  <path fill="#9798ab" fill-rule="evenodd" d="M7 12a1 1 0 011-1h13a1 1 0 010 2H8a1 1 0 01-1-1z" clip-rule="evenodd"/>
  <path fill="#9798ab" fill-rule="evenodd" d="M7 18a1 1 0 011-1h13a1 1 0 010 2H8a1 1 0 01-1-1z" clip-rule="evenodd"/>
  <path fill="#9798ab" d="M4.041 8h-.825V5.373l-.81.237v-.625l1.56-.54h.075V8zm.657 6h-2.48v-.537l1.142-1.201c.281-.32.422-.576.422-.764 0-.153-.033-.27-.1-.35-.067-.08-.163-.12-.29-.12a.361.361 0 00-.306.162.652.652 0 00-.117.398h-.825c0-.218.055-.42.164-.603.109-.186.26-.33.454-.435.193-.104.41-.156.65-.156.383 0 .679.089.885.266.209.178.313.432.313.764 0 .14-.026.277-.078.41a1.807 1.807 0 01-.244.418 6.08 6.08 0 01-.53.583l-.46.53h1.4V14zm-1.729 3.878h.388c.308 0 .462-.15.462-.451a.387.387 0 00-.11-.286.414.414 0 00-.31-.112.45.45 0 00-.286.095.291.291 0 00-.12.237h-.822c0-.187.052-.354.156-.5.104-.147.248-.261.432-.342.186-.083.39-.125.61-.125.396 0 .707.09.933.271.226.18.34.429.34.745a.752.752 0 01-.142.434.995.995 0 01-.408.33.953.953 0 01.445.312c.107.139.16.31.16.515a.917.917 0 01-.365.762c-.245.19-.565.286-.962.286-.233 0-.45-.044-.65-.132a1.027 1.027 0 01-.451-.369.964.964 0 01-.154-.537h.827c0 .11.044.204.132.283.088.08.196.12.325.12a.49.49 0 00.347-.12.408.408 0 00.129-.31c0-.179-.045-.306-.134-.38a.561.561 0 00-.371-.113h-.4v-.613z"/>
</svg>
