<svg xmlns="http://www.w3.org/2000/svg" fill="none" viewBox="0 0 24 24">
  <path fill-rule="evenodd" d="M12 3a9 9 0 1 0 0 18 9 9 0 0 0 0-18ZM1 12C1 5.925 5.925 1 12 1s11 4.925 11 11-4.925 11-11 11S1 18.075 1 12Z" clip-rule="evenodd"/>
  <path d="m9.224 16.963.174.985-.174-.985ZM8 7.231v9.538h2V7.231H8Zm1.398 10.717c.628-.111 2.434-.48 4.107-1.31C15.125 15.831 17 14.39 17 12h-2c0 1.181-.916 2.116-2.385 2.846-1.416.704-2.999 1.032-3.566 1.133l.349 1.969ZM17 12c0-2.39-1.875-3.832-3.495-4.637-1.673-.832-3.479-1.2-4.107-1.31l-.349 1.969c.567.1 2.15.428 3.566 1.132C14.084 9.884 15 10.819 15 12h2Zm-9 4.77c0 .697.62 1.316 1.398 1.178l-.349-1.97a.809.809 0 0 1 .951.791H8Zm2-9.54a.809.809 0 0 1-.95.792l.348-1.97C8.621 5.914 8 6.533 8 7.231h2Z"/>
</svg>
