<svg xmlns="http://www.w3.org/2000/svg" fill="none" viewBox="0 0 24 24">
  <path fill-rule="evenodd" d="M12 3a9 9 0 1 0 0 18 9 9 0 0 0 0-18ZM1 12C1 5.925 5.925 1 12 1s11 4.925 11 11-4.925 11-11 11S1 18.075 1 12Z" clip-rule="evenodd"/>
  <path fill-rule="evenodd" d="M9 7a1 1 0 0 1 1 1v4.77c0 .614.227 1.19.611 1.603.382.411.883.627 1.389.627.505 0 1.007-.216 1.389-.627.384-.413.611-.99.611-1.604V8a1 1 0 1 1 2 0v4.77c0 1.098-.405 2.166-1.146 2.964A3.895 3.895 0 0 1 12 17a3.895 3.895 0 0 1-2.854-1.266A4.361 4.361 0 0 1 8 12.77V8a1 1 0 0 1 1-1Z" clip-rule="evenodd"/>
</svg>
