<svg
        xmlns="http://www.w3.org/2000/svg"
        fill="none"
        viewBox="0 0 24 24">
    <path
    fill="#9798ab"
            d="M2.6 6.42v5.54h6.18V6.42h1.58V19H8.78v-5.68H2.6V19H1.02V6.42H2.6zM20.679 9.6c-.227-1.307-.94-1.96-2.14-1.96-1.2 0-2.127.493-2.78 1.48-.64.987-.96 2.333-.96 4.04 0 .707.033 1.293.1 1.76.08-1.227.453-2.113 1.12-2.66.68-.56 1.547-.84 2.6-.84 1.053 0 1.96.373 2.72 1.12.76.733 1.14 1.68 1.14 2.84 0 1.147-.393 2.08-1.18 2.8-.787.707-1.82 1.06-3.1 1.06-1.493 0-2.7-.6-3.62-1.8-.92-1.2-1.38-2.773-1.38-4.72 0-1.96.467-3.533 1.4-4.72.933-1.2 2.207-1.8 3.82-1.8 1.12 0 2.033.313 2.74.94.707.627 1.113 1.447 1.22 2.46h-1.7zm-2.48 3.22c-.747 0-1.373.24-1.88.72-.493.467-.74 1.067-.74 1.8 0 .733.247 1.327.74 1.78.493.44 1.12.66 1.88.66.76 0 1.387-.22 1.88-.66.507-.44.76-1.047.76-1.82 0-.773-.253-1.38-.76-1.82-.493-.44-1.12-.66-1.88-.66z"/>
</svg>
