<?xml version="1.0" encoding="UTF-8" standalone="no"?>
<svg
   xmlns:dc="http://purl.org/dc/elements/1.1/"
   xmlns:cc="http://creativecommons.org/ns#"
   xmlns:rdf="http://www.w3.org/1999/02/22-rdf-syntax-ns#"
   xmlns:svg="http://www.w3.org/2000/svg"
   xmlns="http://www.w3.org/2000/svg"
   id="svg8"
   version="1.1"
   viewBox="0 0 162.785 53"
   height="53mm"
   width="162.785mm">
  <defs
     id="defs2">
    <clipPath
       clipPathUnits="userSpaceOnUse"
       id="clipPath831">
      <path
         d="M 0,396.85 H 538.583 V 0 H 0 Z"
         id="path829" />
    </clipPath>
  </defs>
  <metadata
     id="metadata5">
    <rdf:RDF>
      <cc:Work
         rdf:about="">
        <dc:format>image/svg+xml</dc:format>
        <dc:type
           rdf:resource="http://purl.org/dc/dcmitype/StillImage" />
        <dc:title></dc:title>
      </cc:Work>
    </rdf:RDF>
  </metadata>
  <g
     transform="translate(0,-244)"
     id="layer1">
    <g
       id="g823"
       transform="matrix(0.35214543,0,0,-0.35214543,-14.474647,340.3645)">
      <g
         id="g825">
        <g
           id="g827"
           clip-path="url(#clipPath831)">
          <g
             id="g833"
             transform="translate(179.1151,176.0063)">
            <path
               d="m 0,0 c 0,-3.25 0.965,-5.83 2.894,-7.739 1.93,-1.907 4.198,-2.863 6.803,-2.863 2.753,0 5.051,0.998 6.894,2.993 1.844,1.995 2.765,4.604 2.765,7.832 0,3.175 -0.928,5.761 -2.784,7.756 -1.855,1.995 -4.148,2.992 -6.875,2.992 C 8.075,10.971 6.544,10.577 5.106,9.79 3.668,9.001 2.464,7.788 1.494,6.151 0.523,4.513 0.025,2.611 0,0.443 Z M -9.678,-18.986 V 36.237 H 0.185 V 15.22 c 1.082,1.477 2.617,2.677 4.608,3.6 1.991,0.925 4.301,1.386 6.932,1.386 3.357,0 6.395,-0.88 9.115,-2.641 2.72,-1.76 4.84,-4.162 6.358,-7.203 1.52,-3.043 2.28,-6.422 2.28,-10.139 0,-3.72 -0.76,-7.106 -2.28,-10.16 -1.518,-3.053 -3.638,-5.466 -6.358,-7.24 -2.72,-1.772 -5.758,-2.659 -9.115,-2.659 -5.424,0 -9.491,1.995 -12.202,5.984 l -0.779,-5.134 z"
               style="fill:#231f20;fill-opacity:1;fill-rule:nonzero;stroke:none"
               id="path835" />
          </g>
          <g
             id="g837"
             transform="translate(224.5507,180.0336)">
            <path
               d="M 0,0 H 16.733 C 16.684,2.19 15.927,3.95 14.461,5.281 12.996,6.611 11.057,7.276 8.644,7.276 6.229,7.276 4.242,6.605 2.678,5.265 1.114,3.923 0.222,2.168 0,0 m -10.232,-3.879 c 0,5.836 1.76,10.638 5.282,14.405 3.521,3.769 8.114,5.653 13.778,5.653 2.562,0 4.913,-0.407 7.056,-1.219 2.142,-0.813 4.013,-2.026 5.615,-3.639 1.6,-1.613 2.849,-3.706 3.749,-6.279 0.898,-2.573 1.348,-5.522 1.348,-8.847 v -3.03 H -0.075 c 0.148,-2.417 1.059,-4.377 2.734,-5.877 1.674,-1.499 3.842,-2.249 6.501,-2.249 1.896,0 3.522,0.346 4.876,1.038 1.354,0.693 2.302,1.676 2.845,2.951 h 9.494 c -1.183,-4.112 -3.257,-7.289 -6.225,-9.53 -2.967,-2.241 -6.741,-3.361 -11.322,-3.361 -5.688,0 -10.287,1.823 -13.796,5.467 -3.51,3.644 -5.264,8.484 -5.264,14.517"
               style="fill:#231f20;fill-opacity:1;fill-rule:nonzero;stroke:none"
               id="path839" />
          </g>
          <g
             id="g841"
             transform="translate(257.0565,176.1166)">
            <path
               d="m 0,0 c 0,5.798 1.804,10.597 5.412,14.396 3.607,3.799 8.206,5.7 13.796,5.7 4.679,0 8.625,-1.225 11.839,-3.675 3.214,-2.451 5.165,-6.016 5.856,-10.694 h -9.53 c -0.568,1.734 -1.552,3.08 -2.956,4.035 -1.404,0.954 -3.066,1.431 -4.987,1.431 -2.66,0 -4.876,-1.053 -6.649,-3.161 C 11.008,5.925 10.122,3.248 10.122,0 c 0,-3.222 0.886,-5.869 2.659,-7.939 1.773,-2.07 4.063,-3.105 6.871,-3.105 1.921,0 3.583,0.508 4.986,1.527 1.404,1.018 2.34,2.343 2.808,3.977 h 9.604 c -0.886,-4.63 -2.936,-8.188 -6.15,-10.676 -3.214,-2.487 -7.11,-3.73 -11.692,-3.73 -5.614,0 -10.22,1.849 -13.815,5.55 C 1.797,-10.698 0,-5.898 0,0"
               style="fill:#231f20;fill-opacity:1;fill-rule:nonzero;stroke:none"
               id="path843" />
          </g>
          <g
             id="g845"
             transform="translate(309.2904,176.1908)">
            <path
               d="m 0,0 c 0,-3.198 0.928,-5.851 2.787,-7.957 1.859,-2.108 4.253,-3.161 7.184,-3.161 2.956,0 5.35,1.053 7.186,3.161 1.834,2.106 2.752,4.759 2.752,7.957 0,3.224 -0.918,5.883 -2.752,7.977 -1.836,2.095 -4.23,3.142 -7.186,3.142 C 7.04,11.119 4.646,10.072 2.787,7.977 0.928,5.883 0,3.224 0,0 m -10.123,0 c 0,5.896 1.89,10.707 5.671,14.434 3.78,3.725 8.562,5.587 14.349,5.587 5.817,0 10.626,-1.862 14.429,-5.587 3.801,-3.727 5.703,-8.538 5.703,-14.434 0,-3.884 -0.876,-7.354 -2.632,-10.416 -1.752,-3.061 -4.157,-5.426 -7.213,-7.098 -3.054,-1.671 -6.483,-2.507 -10.287,-2.507 -5.787,0 -10.569,1.862 -14.349,5.586 -3.781,3.724 -5.671,8.536 -5.671,14.435"
               style="fill:#231f20;fill-opacity:1;fill-rule:nonzero;stroke:none"
               id="path847" />
          </g>
          <g
             id="g849"
             transform="translate(347.0765,157.0199)">
            <path
               d="M 0,0 V 38.343 H 8.423 L 9.202,33.25 c 0.937,1.755 2.286,3.185 4.05,4.287 1.763,1.104 3.829,1.655 6.196,1.655 5.401,0 9.064,-2.282 10.988,-6.847 0.982,1.98 2.426,3.618 4.331,4.91 1.902,1.291 4.132,1.937 6.686,1.937 4,0 7.042,-1.268 9.128,-3.804 2.086,-2.536 3.129,-6.034 3.129,-10.491 V 0 h -9.863 v 22.613 c 0,4.576 -1.78,6.866 -5.339,6.866 -1.915,0 -3.499,-0.76 -4.752,-2.278 -1.251,-1.517 -1.914,-3.72 -1.988,-6.607 V 0 h -9.862 v 22.613 c 0,2.227 -0.449,3.927 -1.344,5.102 -0.897,1.175 -2.229,1.764 -3.997,1.764 -1.989,0 -3.603,-0.797 -4.841,-2.388 -1.241,-1.59 -1.861,-3.903 -1.861,-6.938 L 9.863,0 Z"
               style="fill:#231f20;fill-opacity:1;fill-rule:nonzero;stroke:none"
               id="path851" />
          </g>
          <g
             id="g853"
             transform="translate(418.0375,180.0336)">
            <path
               d="M 0,0 H 16.733 C 16.684,2.19 15.926,3.95 14.462,5.281 12.996,6.611 11.058,7.276 8.644,7.276 6.23,7.276 4.242,6.605 2.679,5.265 1.114,3.923 0.223,2.168 0,0 m -10.231,-3.879 c 0,5.836 1.758,10.638 5.282,14.405 3.52,3.769 8.113,5.653 13.778,5.653 2.561,0 4.912,-0.407 7.055,-1.219 2.142,-0.813 4.014,-2.026 5.615,-3.639 1.6,-1.613 2.85,-3.706 3.749,-6.279 0.898,-2.573 1.349,-5.522 1.349,-8.847 v -3.03 H -0.074 c 0.148,-2.417 1.058,-4.377 2.732,-5.877 1.676,-1.499 3.843,-2.249 6.503,-2.249 1.896,0 3.521,0.346 4.875,1.038 1.355,0.693 2.303,1.676 2.845,2.951 h 9.493 c -1.181,-4.112 -3.256,-7.289 -6.224,-9.53 -2.967,-2.241 -6.741,-3.361 -11.321,-3.361 -5.688,0 -10.288,1.823 -13.797,5.467 -3.51,3.644 -5.263,8.484 -5.263,14.517"
               style="fill:#231f20;fill-opacity:1;fill-rule:nonzero;stroke:none"
               id="path855" />
          </g>
          <g
             id="g857"
             transform="translate(450.1342,168.6557)">
            <path
               d="m 0,0 h 9.678 c 0.024,-1.526 0.522,-2.691 1.492,-3.491 0.97,-0.8 2.303,-1.2 3.997,-1.2 1.496,0 2.661,0.326 3.495,0.978 0.834,0.653 1.251,1.546 1.251,2.678 0,1.231 -0.473,2.205 -1.417,2.92 -0.943,0.713 -2.777,1.329 -5.5,1.845 C 8.807,4.445 5.71,5.726 3.708,7.573 1.705,9.419 0.705,11.918 0.705,15.071 c 0,3.546 1.233,6.514 3.699,8.903 2.465,2.388 5.955,3.583 10.468,3.583 4.067,0 7.396,-1.115 9.984,-3.343 2.587,-2.229 3.956,-5.153 4.104,-8.774 h -9.782 c -0.074,2.93 -1.533,4.397 -4.378,4.397 -1.35,0 -2.393,-0.346 -3.128,-1.035 -0.736,-0.69 -1.105,-1.601 -1.105,-2.733 0,-1.208 0.473,-2.131 1.417,-2.771 0.944,-0.64 2.717,-1.182 5.317,-1.625 4.511,-0.763 7.717,-2.088 9.62,-3.972 C 28.824,5.818 29.776,3.25 29.776,0 c 0,-2.117 -0.394,-3.989 -1.183,-5.614 -0.79,-1.626 -1.874,-2.932 -3.255,-3.916 -1.38,-0.986 -2.945,-1.724 -4.696,-2.217 -1.751,-0.491 -3.651,-0.738 -5.696,-0.738 -4.645,0 -8.266,1.12 -10.865,3.361 C 1.482,-6.883 0.123,-3.842 0,0"
               style="fill:#231f20;fill-opacity:1;fill-rule:nonzero;stroke:none"
               id="path859" />
          </g>
          <g
             id="g861"
             transform="translate(497.8724,222.8188)">
            <path
               d="M 0,0 H -0.885 V -1.856 H 0 c 0.317,0 0.566,0.082 0.746,0.248 0.18,0.166 0.271,0.392 0.271,0.68 0,0.288 -0.091,0.514 -0.271,0.68 C 0.566,-0.083 0.317,0 0,0 M 0.045,0.994 C 0.692,0.994 1.203,0.821 1.577,0.476 1.952,0.131 2.14,-0.338 2.14,-0.928 2.14,-1.317 2.049,-1.651 1.869,-1.933 1.689,-2.213 1.411,-2.432 1.038,-2.591 l 1.36,-2.462 H 1.124 l -1.209,2.289 h -0.8 v -2.289 h -1.101 v 6.047 z m -0.066,1.664 c -1.353,0 -2.444,-0.443 -3.273,-1.328 -0.827,-0.886 -1.241,-2.007 -1.241,-3.36 0,-1.353 0.414,-2.472 1.241,-3.358 0.829,-0.885 1.92,-1.328 3.273,-1.328 1.339,0 2.419,0.443 3.24,1.328 0.821,0.886 1.231,2.005 1.231,3.358 0,1.353 -0.41,2.474 -1.231,3.36 -0.821,0.885 -1.901,1.328 -3.24,1.328 m 0,1.036 c 1.657,0 2.999,-0.54 4.029,-1.62 1.028,-1.08 1.544,-2.448 1.544,-4.104 0,-1.641 -0.516,-3.006 -1.544,-4.093 -1.03,-1.087 -2.372,-1.631 -4.029,-1.631 -1.67,0 -3.024,0.544 -4.06,1.631 -1.037,1.087 -1.556,2.452 -1.556,4.093 0,1.656 0.519,3.024 1.556,4.104 1.036,1.08 2.39,1.62 4.06,1.62"
               style="fill:#231f20;fill-opacity:1;fill-rule:nonzero;stroke:none"
               id="path863" />
          </g>
          <g
             id="g865"
             transform="translate(66.3143,247.2831)">
            <path
               d="M 0,0 -18.28,10.549 0,21.104 18.281,10.549 Z m 45.729,-52.802 -20.573,11.874 v 21.105 l 38.853,-22.431 z m -20.573,-43.573 20.873,12.051 1.992,1.147 v 26.404 l 18.281,10.548 V -93.738 L 25.156,-117.495 Z M 20.573,-67.33 2.292,-77.883 V -3.97 L 20.573,6.579 Z m 2.299,-3.977 18.273,-10.549 -18.28,-10.549 -18.279,10.547 z m 2.284,3.977 v 21.105 L 43.437,-56.773 V -77.885 Z M -20.573,6.579 -2.292,-3.97 v -79.211 l 22.865,-13.194 v -21.113 l -41.146,23.75 z M 25.156,-14.526 V 11.877 L 0,26.395 -23.434,12.865 -25.156,11.877 v -108.26 l 46.302,-26.733 1.727,-0.995 48.013,27.728 v 55.458 z"
               style="fill:#231f20;fill-opacity:1;fill-rule:nonzero;stroke:none"
               id="path867" />
          </g>
        </g>
      </g>
    </g>
  </g>
</svg>
